<svg width="436" height="56" viewBox="0 0 436 56" fill="none" xmlns="http://www.w3.org/2000/svg">
<path d="M69.1501 27.54C67.0601 27.54 66.1101 29.01 67.0501 30.81L78.9301 53.73C79.8601 55.53 81.3901 55.53 82.3201 53.73L94.2001 30.81C94.4201 30.39 94.5301 29.99 94.5601 29.62V29.37C94.5001 28.29 93.5901 27.54 92.1001 27.54H69.1601" fill="white"/>
<path d="M94.5499 0H73.8598C65.4898 0 57.6098 3.18 51.6698 8.95C49.9798 10.59 48.5098 12.39 47.2598 14.32C41.7098 5.76 31.9398 0.05 20.8398 0V9.95C30.6998 10.01 39.0098 16.53 41.4598 25.35H53.0998C55.5598 16.49 63.9298 9.95 73.8598 9.95H94.5499V0Z" fill="white"/>
<path d="M20.69 45.1402H0V55.0902H20.69C29.06 55.0902 36.94 51.9102 42.88 46.1402C44.57 44.5002 46.04 42.7002 47.29 40.7702C52.84 49.3302 62.61 55.0402 73.71 55.0902V45.1402C63.85 45.0802 55.54 38.5602 53.1 29.7402H41.46C39 38.6002 30.63 45.1402 20.7 45.1402" fill="white"/>
<path d="M25.4 27.54C27.49 27.54 28.44 26.07 27.5 24.27L15.62 1.35C14.69 -0.45 13.16 -0.45 12.23 1.35L0.36 24.27C0.14 24.69 0.03 25.09 0 25.46V25.71C0.06 26.79 0.97 27.54 2.46 27.54H25.4Z" fill="white"/>
<path d="M134.26 21.4402C132.67 19.9102 130.29 19.0702 128.22 19.0702C123.13 19.0702 120.05 22.9402 120.05 27.8202C120.05 31.7202 122.32 35.7602 128.22 35.7602C130.09 35.7602 131.71 35.3502 133.58 33.8602V29.6502H127.51V25.6502H137.69V35.6602C135.35 38.3402 132.4 39.9302 128.23 39.9302C119.31 39.9302 115.68 34.0602 115.68 27.8202C115.68 21.1402 119.85 14.9702 128.23 14.9702C131.42 14.9702 134.61 16.1902 137.05 18.6002L134.27 21.4502" fill="white"/>
<path d="M165.67 34.9001H153.26L151.22 39.3801H146.37L157.02 15.6401H161.9L172.55 39.3801H167.67L165.67 34.9001M159.46 20.6201L155.05 30.7301H163.87L159.46 20.6201Z" fill="white"/>
<path d="M192.87 32.3904H186.15V39.3804H181.67V15.6404C185.4 15.6404 189.13 15.6104 192.86 15.6104C204.46 15.6104 204.49 32.4004 192.86 32.4004M186.14 28.3004H192.86C198.59 28.3004 198.56 19.8904 192.86 19.8904H186.14V28.3004Z" fill="white"/>
<path d="M244.02 21.4402C242.43 19.9102 240.05 19.0702 237.98 19.0702C232.89 19.0702 229.81 22.9402 229.81 27.8202C229.81 31.7202 232.08 35.7602 237.98 35.7602C239.85 35.7602 241.47 35.3502 243.34 33.8602V29.6502H237.27V25.6502H247.45V35.6602C245.11 38.3402 242.16 39.9302 237.99 39.9302C229.07 39.9302 225.44 34.0602 225.44 27.8202C225.44 21.1402 229.61 14.9702 237.99 14.9702C241.18 14.9702 244.37 16.1902 246.81 18.6002L244.03 21.4502" fill="white"/>
<path d="M275.43 34.9001H263.02L260.98 39.3801H256.13L266.78 15.6401H271.66L282.31 39.3801H277.43L275.43 34.9001M269.22 20.6201L264.81 30.7301H273.63L269.22 20.6201V20.6201Z" fill="white"/>
<path d="M312.13 22.1804L304.4 32.4904H303.51L295.95 22.1504V39.4104H291.47V15.6704H296.63L304.06 25.8804L311.49 15.6704H316.61V39.4104H312.13V22.1804Z" fill="white"/>
<path d="M347.57 22.5201C347.57 24.3501 346.69 26.1201 344.48 27.1001C347.26 27.9501 348.28 30.9001 348.28 32.3901C348.28 37.6801 344.31 39.3801 339.39 39.3801H328.13V15.6401H339.39C344.07 15.6401 347.56 17.7401 347.56 22.5301M332.53 25.1801H339.38C342.2 25.1801 343.11 23.9901 343.11 22.6401C343.11 21.5601 342.23 19.7201 339.38 19.7201H332.53V25.1801ZM332.53 35.2201H339.38C341.21 35.2201 343.82 34.6101 343.82 32.3701C343.82 30.1301 341.21 29.1101 339.38 29.1101H332.53V35.2101V35.2201Z" fill="white"/>
<path d="M363.38 15.6401V35.2401H375.59V39.3801H358.9V15.6401H363.38Z" fill="white"/>
<path d="M403.91 39.3801H386.14V15.6401H403.91V19.9801H390.58V25.4401H403.44V29.6101H390.58V34.9701H403.91V39.3801" fill="white"/>
<path d="M435.9 39.3801H430.58L423.66 31.4401H419.35V39.3801H414.87V15.6001C418.63 15.6001 422.4 15.6301 426.16 15.6301C431.76 15.6601 434.71 19.3901 434.71 23.5001C434.71 26.7601 433.22 30.0501 428.71 30.9601L435.9 39.0701V39.3801ZM419.35 19.8101V27.4101H426.17C429.02 27.4101 430.24 25.5101 430.24 23.6101C430.24 21.7101 428.99 19.8101 426.17 19.8101H419.35Z" fill="white"/>
</svg>
